# xmcd
#
# Track frame offsets:
#	150
#	16393
#	34026
#	50366
#	67349
#	88129
#	104052
#	122872
#	139642
#	154537
#	173009
#	189467
#	206304
#	224609
#	242682
#	257929
#	277137
#	291477
#	308200
#
# Disc length: 4397 seconds
#
# Revision: 4
# Processed by: cddbd v1.5.2PL0 Copyright (c) Steve Scherf et al.
# Submitted via: audiograbber 1.83.01
#
DISCID=29112b13
DTITLE=MMC301 Music Maestro - Country3 Disc 1 (MM)
DYEAR=2004
DGENRE=Karaoke
TTITLE0=Steve Holy - Good Morning Beautiful (MM)
TTITLE1=Phil Vassar - Six Pack Summer (MM)
TTITLE2=Trick Pony - On A Night Like This (MM)
TTITLE3=John Michael Montgomery - The Little Girl (MM)
TTITLE4=Alan Jackson - Little Man (MM)
TTITLE5=Martina McBride - When God Fearin' Women Get The Blues (MM)
TTITLE6=Travis Tritt - Best Of Intentions (MM)
TTITLE7=Dixie Chicks - Wide Open Spaces (MM)
TTITLE8=Andy Griggs - How Cool Is That (MM)
TTITLE9=Steve Wariner - I'm Already Taken (MM)
TTITLE10=Tammy Cochran - Angels In Waiting (MM)
TTITLE11=Tim McGraw - Some Things Never Change (MM)
TTITLE12=Jamie O'Neal - There Is No Arizona (MM)
TTITLE13=Kenny Chesney - You Had Me From Hello (MM)
TTITLE14=Alabama and Nsync - God Must Have Spend A Little More Time On You (MM)
TTITLE15=Billy Gilman - One Voice (MM)
TTITLE16=Keith Urban - Where The Blacktop Ends (MM)
TTITLE17=Lila McCann - Come A Little Closer (MM)
TTITLE18=David Ball - Riding With Private Malone (MM)
EXTD=
EXTT0=
EXTT1=
EXTT2=
EXTT3=
EXTT4=
EXTT5=
EXTT6=
EXTT7=
EXTT8=
EXTT9=
EXTT10=
EXTT11=
EXTT12=
EXTT13=
EXTT14=
EXTT15=
EXTT16=
EXTT17=
EXTT18=
PLAYORDER=
